<svg width="110" height="34" viewBox="0 0 110 34" fill="none" xmlns="http://www.w3.org/2000/svg">
<path d="M6.01516 4.98131C7.39283 4.98131 8.47944 5.36931 9.27499 6.14533C10.09 6.90194 10.478 7.93016 10.478 9.26878V9.909H4.54047C4.61809 10.3164 4.79272 10.6462 5.08378 10.9178C5.37483 11.17 5.7435 11.3058 6.18979 11.3058C6.7719 11.3058 7.17938 11.17 7.39283 10.8984H10.4004C10.3228 11.558 9.91532 12.1788 9.19738 12.7414C8.47944 13.3041 7.48984 13.5951 6.18979 13.5951C4.75391 13.5951 3.62849 13.2071 2.77473 12.4116C1.94036 11.6162 1.53289 10.588 1.53289 9.28818C1.53289 7.98836 1.94036 6.94074 2.77473 6.16473C3.58969 5.36931 4.6763 4.98131 6.01516 4.98131ZM6.98535 7.38695C6.7331 7.19295 6.40323 7.09594 6.03456 7.09594C5.66589 7.09594 5.33603 7.19295 5.08378 7.38695C4.83153 7.58095 4.65689 7.85256 4.57928 8.18236H7.50925C7.41223 7.85256 7.2376 7.58095 6.98535 7.38695ZM17.0753 8.16296C16.8425 7.75556 16.4544 7.56155 15.9305 7.56155C15.5036 7.56155 15.1737 7.71676 14.9215 8.04656C14.6692 8.35697 14.5528 8.76437 14.5528 9.26878C14.5528 9.77319 14.6692 10.1806 14.9215 10.5104C15.1737 10.8208 15.523 10.9954 15.9499 10.9954C16.2604 10.9954 16.532 10.9372 16.726 10.8014C16.9201 10.6656 17.0559 10.5298 17.1141 10.394H20.0247C20.0053 10.7626 19.9083 11.1312 19.7336 11.4804C19.559 11.849 19.3067 12.1788 18.9963 12.5086C18.6858 12.819 18.2395 13.0907 17.6962 13.2847C17.1529 13.4787 16.532 13.5757 15.8529 13.5757C14.5916 13.5757 13.5632 13.1877 12.7289 12.4116C11.9139 11.6356 11.5064 10.588 11.5064 9.26878C11.5064 7.96896 11.9139 6.92134 12.7289 6.14533C13.5438 5.36931 14.5722 4.98131 15.8141 4.98131C17.1141 4.98131 18.1231 5.31111 18.8216 5.95132C19.5396 6.59154 19.9277 7.34815 20.0053 8.18236H17.0753V8.16296ZM25.4189 4.98131C26.7384 4.98131 27.825 5.36931 28.6788 6.16473C29.5519 6.96014 29.9788 7.98836 29.9788 9.26878C29.9788 10.5492 29.5519 11.5774 28.6788 12.3922C27.825 13.1877 26.7384 13.5757 25.4189 13.5757C24.0995 13.5757 22.9935 13.1877 22.1397 12.3922C21.2665 11.5968 20.8396 10.5492 20.8396 9.26878C20.8396 7.98836 21.2665 6.94074 22.1203 6.16473C22.9741 5.36931 24.0801 4.98131 25.4189 4.98131ZM25.4189 10.9566C25.8652 10.9566 26.2339 10.8014 26.5055 10.4716C26.7966 10.1612 26.9324 9.75379 26.9324 9.24938C26.9324 8.76437 26.7966 8.35697 26.5055 8.04656C26.2339 7.73616 25.8652 7.56155 25.4189 7.56155C24.9532 7.56155 24.5846 7.71676 24.2935 8.04656C24.0025 8.35697 23.8666 8.76437 23.8666 9.24938C23.8666 9.73439 24.0025 10.1418 24.2935 10.4716C24.5846 10.8014 24.9532 10.9566 25.4189 10.9566ZM35.4313 10.5104C35.3343 10.5104 35.179 10.5104 34.985 10.491C34.791 10.4716 34.6551 10.4716 34.5581 10.4522C33.4327 10.394 32.5595 10.1418 31.9386 9.67619C31.3177 9.21058 31.0072 8.55097 31.0072 7.67796C31.0072 6.82434 31.3565 6.16473 32.055 5.67972C32.7536 5.19471 33.7431 4.96191 35.0238 4.96191C35.6253 4.96191 36.188 5.02011 36.6731 5.15591C37.1582 5.27231 37.5657 5.42751 37.8373 5.60212C38.1284 5.77672 38.3807 5.99012 38.5747 6.22293C38.7881 6.45573 38.924 6.66914 39.0016 6.86314C39.0792 7.05714 39.1374 7.23175 39.1762 7.40635H35.9746C35.7999 7.15415 35.4701 7.03774 34.9656 7.03774C34.3835 7.03774 34.0924 7.19295 34.0924 7.48395C34.0924 7.75556 34.3447 7.93016 34.8686 7.96896C35.3149 8.00776 35.5671 8.00776 35.6253 8.00776C36.9642 8.08536 37.915 8.33757 38.4777 8.78378C39.0598 9.21058 39.3508 9.88959 39.3508 10.8014C39.3508 12.6444 37.9732 13.5757 35.2372 13.5757C34.4611 13.5757 33.782 13.4787 33.1804 13.3041C32.5983 13.1101 32.152 12.8772 31.8416 12.5862C31.5311 12.2952 31.2983 12.0042 31.143 11.752C31.0072 11.4998 30.9102 11.2476 30.8714 11.0342H34.1506C34.3059 11.3446 34.6745 11.4998 35.2372 11.4998C35.897 11.4998 36.2268 11.3446 36.2268 11.0148C36.2074 10.7044 35.9552 10.5298 35.4313 10.5104ZM41.8927 10.8014V7.65856H39.9136V5.19471H41.8927V2.40106H44.9391V5.19471H47.481V7.65856H44.9391V9.65679C44.9391 10.0254 45.0167 10.297 45.1526 10.4522C45.3078 10.6074 45.5795 10.685 45.9675 10.685H47.481V13.3429H44.6481C42.8047 13.3623 41.8927 12.5086 41.8927 10.8014ZM54.6798 12.2564C54.6216 12.3534 54.544 12.4504 54.447 12.5474C54.35 12.6444 54.2141 12.7802 54.0201 12.9549C53.8261 13.1101 53.5544 13.2459 53.2245 13.3623C52.8947 13.4593 52.5454 13.5175 52.1573 13.5175C51.1289 13.5175 50.2752 13.1295 49.596 12.3534C48.9169 11.5774 48.5676 10.5492 48.5676 9.26878C48.5676 7.98836 48.9169 6.96014 49.596 6.20353C50.2752 5.42751 51.1289 5.03951 52.1767 5.03951C53.2827 5.03951 54.0977 5.42751 54.641 6.20353V5.17531H57.6874V13.3429H54.6992V12.2564H54.6798ZM54.6798 9.26878C54.6798 8.78378 54.544 8.37637 54.2723 8.06596C54.0007 7.75556 53.632 7.58095 53.1857 7.58095C52.7394 7.58095 52.3708 7.73616 52.0991 8.06596C51.8275 8.37637 51.6916 8.78378 51.6916 9.26878C51.6916 9.75379 51.8275 10.1612 52.0991 10.491C52.3708 10.8014 52.7394 10.976 53.1857 10.976C53.632 10.976 54.0007 10.8208 54.2723 10.491C54.5246 10.1612 54.6798 9.75379 54.6798 9.26878ZM59.5502 13.3623V5.19471H62.5966V6.31993C62.81 6.00952 63.1205 5.69912 63.5668 5.42751C64.013 5.15591 64.5563 5.02011 65.1579 5.02011C66.1669 5.02011 66.9624 5.34991 67.5445 5.99012C68.1266 6.63034 68.4177 7.46455 68.4177 8.51217V13.3817H65.3713V9.11358C65.3713 8.66737 65.2355 8.31817 64.9832 8.06596C64.731 7.81376 64.4011 7.67796 63.9742 7.67796C63.5474 7.67796 63.2175 7.81376 62.9458 8.06596C62.6936 8.31817 62.5772 8.66737 62.5772 9.11358V13.3623H59.5502ZM76.0434 12.2564C75.9658 12.3922 75.8493 12.528 75.6941 12.6832C75.5583 12.8384 75.2672 13.0131 74.8403 13.2071C74.4329 13.4011 73.9672 13.4981 73.4627 13.4981C72.4149 13.4981 71.5611 13.1101 70.8626 12.334C70.1834 11.558 69.8342 10.5298 69.8342 9.24938C69.8342 7.96896 70.1834 6.94074 70.8626 6.18413C71.5611 5.40811 72.4343 5.02011 73.4627 5.02011C73.8508 5.02011 74.2 5.07831 74.5299 5.17531C74.8597 5.27231 75.112 5.40811 75.3254 5.56332C75.5389 5.71852 75.6747 5.83492 75.7523 5.93192C75.8493 6.02892 75.927 6.10653 75.9852 6.20353V1.99365H79.0316V13.3623H76.0434V12.2564ZM76.024 9.26878C76.024 8.78378 75.8882 8.37637 75.6165 8.06596C75.3448 7.75556 74.9568 7.58095 74.4911 7.58095C74.006 7.58095 73.6179 7.73616 73.3269 8.06596C73.0552 8.37637 72.9194 8.78378 72.9194 9.26878C72.9194 9.77319 73.0552 10.1806 73.3269 10.5104C73.6179 10.8208 74.006 10.976 74.4911 10.976C74.9568 10.976 75.3448 10.8208 75.6165 10.5104C75.8882 10.1806 76.024 9.77319 76.024 9.26878ZM86.6378 12.2564C86.5796 12.3534 86.502 12.4504 86.405 12.5474C86.308 12.6444 86.1721 12.7802 85.9781 12.9549C85.7841 13.1101 85.5124 13.2459 85.1826 13.3623C84.8527 13.4593 84.5034 13.5175 84.1153 13.5175C83.087 13.5175 82.2332 13.1295 81.554 12.3534C80.8749 11.5774 80.5257 10.5492 80.5257 9.26878C80.5257 7.98836 80.8749 6.96014 81.554 6.20353C82.2332 5.42751 83.087 5.03951 84.1348 5.03951C85.2408 5.03951 86.0557 5.42751 86.599 6.20353V5.17531H89.6454V13.3429H86.6572V12.2564H86.6378ZM86.6184 9.26878C86.6184 8.78378 86.4826 8.37637 86.211 8.06596C85.9393 7.75556 85.5706 7.58095 85.1244 7.58095C84.6781 7.58095 84.3094 7.73616 84.0377 8.06596C83.7661 8.37637 83.6303 8.78378 83.6303 9.26878C83.6303 9.75379 83.7661 10.1612 84.0377 10.491C84.3094 10.8208 84.6781 10.976 85.1244 10.976C85.5706 10.976 85.9393 10.8208 86.211 10.491C86.4826 10.1612 86.6184 9.75379 86.6184 9.26878ZM94.5546 9.63739V13.3623H91.5082V5.19471H94.5546V6.35873C95.0009 5.58272 95.777 5.19471 96.8636 5.19471H98.4935V8.18236H96.1845C95.6218 8.18236 95.2143 8.29877 94.9621 8.53157C94.671 8.78378 94.5546 9.13298 94.5546 9.63739ZM105.654 12.2564C105.576 12.3922 105.46 12.528 105.304 12.6832C105.168 12.8384 104.877 13.0131 104.451 13.2071C104.043 13.4011 103.577 13.4981 103.073 13.4981C102.025 13.4981 101.171 13.1101 100.473 12.334C99.7936 11.558 99.4443 10.5298 99.4443 9.24938C99.4443 7.96896 99.7936 6.94074 100.473 6.18413C101.171 5.40811 102.044 5.02011 103.073 5.02011C103.461 5.02011 103.81 5.07831 104.14 5.17531C104.47 5.27231 104.722 5.40811 104.936 5.56332C105.149 5.71852 105.285 5.83492 105.362 5.93192C105.46 6.02892 105.537 6.10653 105.595 6.20353V1.99365H108.642V13.3623H105.654V12.2564ZM105.634 9.26878C105.634 8.78378 105.498 8.37637 105.227 8.06596C104.955 7.75556 104.567 7.58095 104.101 7.58095C103.616 7.58095 103.228 7.73616 102.937 8.06596C102.665 8.37637 102.53 8.78378 102.53 9.26878C102.53 9.77319 102.665 10.1806 102.937 10.5104C103.228 10.8208 103.616 10.976 104.101 10.976C104.567 10.976 104.955 10.8208 105.227 10.5104C105.498 10.1806 105.634 9.77319 105.634 9.26878ZM5.93754 28.9407C5.84052 28.9407 5.68529 28.9407 5.49126 28.9213C5.29722 28.9019 5.16139 28.9019 5.06437 28.8825C3.93895 28.8243 3.06578 28.5721 2.44486 28.1065C1.82394 27.6409 1.51348 26.9813 1.51348 26.1083C1.51348 25.2547 1.86275 24.5951 2.56129 24.1101C3.25982 23.625 4.24941 23.3922 5.53006 23.3922C6.13158 23.3922 6.69429 23.4504 7.17938 23.5862C7.66448 23.7026 8.07196 23.8578 8.34361 24.0325C8.63467 24.2071 8.88692 24.4205 9.08095 24.6533C9.2944 24.8861 9.43022 25.0995 9.50784 25.2935C9.58545 25.4875 9.64366 25.6621 9.68247 25.8367H6.48085C6.30621 25.5845 5.97635 25.4681 5.47185 25.4681C4.88974 25.4681 4.59868 25.6233 4.59868 25.9143C4.59868 26.1859 4.85093 26.3605 5.37483 26.3993C5.82112 26.4381 6.07337 26.4381 6.13158 26.4381C7.47044 26.5157 8.42123 26.7679 8.98393 27.2141C9.56605 27.6409 9.85711 28.3199 9.85711 29.2317C9.85711 31.0748 8.47944 32.006 5.7435 32.006C4.96735 32.006 4.28822 31.909 3.6867 31.7344C3.10459 31.5404 2.6583 31.3076 2.34784 31.0166C2.03738 30.7256 1.80454 30.4346 1.64931 30.1824C1.51348 29.9302 1.41646 29.678 1.37766 29.4646H4.65689C4.81212 29.775 5.18079 29.9302 5.7435 29.9302C6.40323 29.9302 6.7331 29.775 6.7331 29.4451C6.71369 29.1347 6.46144 28.9601 5.93754 28.9407ZM15.4066 23.4116C16.726 23.4116 17.8127 23.7996 18.6664 24.5951C19.5396 25.3905 19.9665 26.4187 19.9665 27.6991C19.9665 28.9795 19.5396 30.0078 18.6664 30.8226C17.8127 31.618 16.726 32.006 15.4066 32.006C14.0871 32.006 12.9811 31.618 12.1273 30.8226C11.2542 30.0272 10.8273 28.9795 10.8273 27.6991C10.8273 26.4187 11.2542 25.3711 12.1079 24.5951C12.9617 23.7996 14.0677 23.4116 15.4066 23.4116ZM15.4066 29.3869C15.8529 29.3869 16.2215 29.2317 16.4932 28.9019C16.7843 28.5915 16.9201 28.1841 16.9201 27.6797C16.9201 27.1947 16.7843 26.7873 16.4932 26.4769C16.2215 26.1665 15.8529 25.9919 15.4066 25.9919C14.9409 25.9919 14.5722 26.1471 14.2812 26.4769C13.9901 26.7873 13.8543 27.1947 13.8543 27.6797C13.8543 28.1647 13.9901 28.5721 14.2812 28.9019C14.5722 29.2317 14.9409 29.3869 15.4066 29.3869ZM20.6844 26.0501V23.625H22.6636V22.5968C22.6636 21.9372 22.8576 21.394 23.2651 21.0254C23.6726 20.6374 24.2741 20.4434 25.0309 20.4434H28.9504V22.6162H26.4861C26.1951 22.6162 26.001 22.6744 25.8652 22.8102C25.7488 22.9266 25.6712 23.1206 25.6712 23.3728V23.6444H28.1549V26.0695H25.6712V31.812H22.6248V26.0695H20.6844V26.0501ZM30.8908 29.2317V26.0889H28.9116V23.625H30.8908V20.8314H33.9372V23.625H36.4791V26.0889H33.9372V28.0871C33.9372 28.4557 34.0148 28.7273 34.1506 28.8825C34.3059 29.0377 34.5775 29.1153 34.9656 29.1153H36.4791V31.7732H33.6461C31.8028 31.7926 30.8908 30.939 30.8908 29.2317Z" fill="#79D100"/>
</svg>
