<svg width="20" height="20" viewBox="0 0 20 20" fill="none" xmlns="http://www.w3.org/2000/svg">
<g clip-path="url(#clip0_10215_729)">
<path d="M19.543 17.332L14.8672 12.6562C15.9305 11.0777 16.4551 9.10545 16.1742 7.00389C15.6953 3.42928 12.7656 0.520299 9.18751 0.0672912C3.86759 -0.605873 -0.605843 3.86756 0.0673596 9.18749C0.520485 12.7672 3.42986 15.6992 7.00486 16.1758C9.10642 16.4566 11.0791 15.9322 12.6572 14.8687L17.333 19.5445C17.9431 20.1547 18.9326 20.1547 19.5427 19.5445C20.1524 18.9336 20.1524 17.9414 19.543 17.332ZM3.08986 8.12499C3.08986 5.36795 5.33283 3.12499 8.08986 3.12499C10.8469 3.12499 13.0899 5.36795 13.0899 8.12499C13.0899 10.882 10.8469 13.125 8.08986 13.125C5.33283 13.125 3.08986 10.8828 3.08986 8.12499Z" fill="#A2A2A2"/>
</g>
<defs>
<clipPath id="clip0_10215_729">
<rect width="20" height="20" fill="white"/>
</clipPath>
</defs>
</svg>
